<svg width="120" height="120" viewBox="0 0 120 120" fill="none" xmlns="http://www.w3.org/2000/svg">
<g clip-path="url(#clip0_566_64)">
<path d="M60 0C93.1714 0 120 26.8286 120 60C120 93.1714 93.1714 120 60 120C26.8286 120 0 93.1714 0 60C0 26.8286 26.8286 0 60 0ZM49.0286 91.6286C75.6 91.6286 90.1714 69.6 90.1714 50.4857V48.6C93 46.5429 95.4857 43.9714 97.3714 41.0571C94.8 42.1714 91.9714 42.9429 89.0571 43.3714C92.0571 41.5714 94.3714 38.7429 95.4 35.4C92.5714 37.0286 89.4857 38.2286 86.2286 38.9143C83.5714 36.0857 79.8 34.3714 75.6857 34.3714C67.7143 34.3714 61.2 40.8857 61.2 48.8571C61.2 49.9714 61.2857 51.0857 61.6286 52.1143C49.6286 51.5143 38.9143 45.7714 31.8 37.0286C30.6 39.1714 29.8286 41.6571 29.8286 44.3143C29.8286 49.2857 32.4 53.7429 36.2571 56.3143C33.8571 56.3143 31.6286 55.6286 29.7429 54.5143V54.6857C29.7429 61.7143 34.7143 67.5429 41.3143 68.9143C40.1143 69.2571 38.8286 69.4286 37.5429 69.4286C36.6 69.4286 35.7429 69.3429 34.8 69.1714C36.6 74.9143 42 79.1143 48.2571 79.2C43.2857 83.0571 37.0286 85.3714 30.2571 85.3714C29.0571 85.3714 27.9429 85.3714 26.8286 85.2C33.1714 89.3143 40.8 91.7143 48.9429 91.7143" fill="#E4A951"/>
</g>
<defs>
<clipPath id="clip0_566_64">
<rect width="120" height="120" fill="white"/>
</clipPath>
</defs>
</svg>
