<svg width="120" height="120" viewBox="0 0 120 120" fill="none" xmlns="http://www.w3.org/2000/svg">
<path d="M60 0C26.865 0 0 26.865 0 60C0 93.135 26.865 120 60 120C93.135 120 120 93.135 120 60C120 26.865 93.135 0 60 0ZM89.47 41.105L79.62 87.505C78.895 90.795 76.935 91.595 74.2 90.045L59.2 78.995L51.97 85.965C51.6155 86.4233 51.1609 86.7945 50.6409 87.0501C50.1209 87.3058 49.5494 87.4391 48.97 87.44H48.945L50.01 72.17L77.81 47.06C79.01 45.995 77.54 45.39 75.945 46.455L41.6 68.085L26.8 63.465C23.6 62.45 23.51 60.265 27.475 58.695L85.305 36.405C87.995 35.425 90.335 37.045 89.465 41.11L89.47 41.105Z" fill="#E4A951"/>
</svg>
