<svg width="110" height="110" viewBox="0 0 110 110" fill="none" xmlns="http://www.w3.org/2000/svg">
<path d="M55 0C85.3765 0 110 24.6235 110 55C110 85.3764 85.3765 110 55 110C45.2802 110.017 35.7313 107.444 27.3351 102.547L0.022085 110L7.45808 82.6759C2.55735 74.2771 -0.0169489 64.724 8.39777e-05 55C8.39777e-05 24.6235 24.6236 0 55 0ZM36.2561 29.15L35.1561 29.194C34.4449 29.243 33.75 29.4298 33.1101 29.744C32.5137 30.0823 31.9691 30.5046 31.4931 30.998C30.8331 31.6195 30.4591 32.1585 30.0576 32.681C28.0232 35.3259 26.9279 38.5732 26.9446 41.91C26.9556 44.605 27.6596 47.2285 28.7596 49.6815C31.0091 54.6425 34.7106 59.895 39.5946 64.7624C40.7716 65.9339 41.9266 67.1109 43.1696 68.2054C49.2384 73.5482 56.4701 77.4013 64.2895 79.4584L67.4135 79.9369C68.431 79.9919 69.4485 79.9149 70.4715 79.8654C72.0731 79.781 73.6367 79.3474 75.053 78.5949C75.7727 78.2228 76.4755 77.8191 77.1595 77.3849C77.1595 77.3849 77.3924 77.2273 77.847 76.8899C78.5895 76.3399 79.046 75.9494 79.662 75.3059C80.124 74.8293 80.509 74.2756 80.817 73.6449C81.246 72.7484 81.675 71.0379 81.851 69.6134C81.983 68.5244 81.9445 67.9304 81.928 67.5619C81.906 66.9734 81.4165 66.3629 80.883 66.1044L77.682 64.669C77.682 64.669 72.897 62.5845 69.971 61.2535C69.6647 61.1201 69.3367 61.0437 69.003 61.028C68.6267 60.9886 68.2463 61.0306 67.8876 61.1511C67.5289 61.2716 67.2003 61.4678 66.924 61.7264C66.8965 61.7154 66.528 62.029 62.5515 66.8469C62.3233 67.1536 62.0089 67.3854 61.6485 67.5128C61.288 67.6401 60.8978 67.6572 60.5275 67.5619C60.1691 67.4664 59.818 67.3451 59.477 67.1989C58.795 66.913 58.5585 66.8029 58.091 66.6049C54.9334 65.2294 52.0105 63.3681 49.4285 61.0885C48.7355 60.4835 48.092 59.8235 47.432 59.1855C45.2684 57.1131 43.3827 54.7689 41.822 52.2115L41.4975 51.689C41.268 51.3358 41.0798 50.9575 40.9366 50.5615C40.7276 49.753 41.2721 49.104 41.2721 49.104C41.2721 49.104 42.6086 47.641 43.2301 46.849C43.8351 46.079 44.3466 45.331 44.6765 44.7975C45.3255 43.7525 45.5291 42.68 45.1881 41.8495C43.6481 38.0875 42.0567 34.3456 40.4141 30.624C40.0896 29.887 39.1271 29.359 38.2526 29.2545C37.9556 29.2178 37.6586 29.1885 37.3616 29.1665C36.6231 29.1241 35.8826 29.1315 35.1451 29.1885L36.2561 29.15Z" fill="#E4A951"/>
</svg>
